<?xml version="1.0" standalone="no"?><!DOCTYPE svg PUBLIC "-//W3C//DTD SVG 1.1//EN" "http://www.w3.org/Graphics/SVG/1.1/DTD/svg11.dtd"><svg t="1603173695352" class="icon" viewBox="0 0 1024 1024" version="1.1" xmlns="http://www.w3.org/2000/svg" p-id="1857" xmlns:xlink="http://www.w3.org/1999/xlink" width="200" height="200"><defs><style type="text/css"></style></defs><path d="M446.8096 282.6752l-138.24 138.24a92.16 92.16 0 0 0-27.008 65.1904v215.4368a92.16 92.16 0 0 0 92.16 92.16h276.608a92.16 92.16 0 0 0 92.16-92.16V486.1696A92.16 92.16 0 0 0 715.52 420.9792l-138.24-138.24a92.16 92.16 0 0 0-130.4704-0.064z" fill="#A750EB" p-id="1858"></path><path d="M437.0048 557.8752m40.512 0l68.9664 0q40.512 0 40.512 40.512l0 118.9504q0 40.512-40.512 40.512l-68.9664 0q-40.512 0-40.512-40.512l0-118.9504q0-40.512 40.512-40.512Z" fill="#CB95F4" p-id="1859"></path><path d="M665.6 881.8304H358.4c-95.2832 0-172.8-77.5168-172.8-172.8V469.8496a171.6608 171.6608 0 0 1 50.6112-122.1888l153.6-153.6a172.8 172.8 0 0 1 244.3776 0l153.6 153.6A171.6608 171.6608 0 0 1 838.4 469.8496v239.1808c0 95.2832-77.5168 172.8-172.8 172.8zM512 181.8496a133.5424 133.5424 0 0 0-95.04 39.36l-153.6 153.6A133.5296 133.5296 0 0 0 224 469.8496v239.1808a134.5536 134.5536 0 0 0 134.4 134.4h307.2a134.5536 134.5536 0 0 0 134.4-134.4V469.8496a133.5296 133.5296 0 0 0-39.36-95.04l-153.6-153.6A133.5296 133.5296 0 0 0 512 181.8496z" p-id="1860"></path></svg>