<?xml version="1.0" standalone="no"?><!DOCTYPE svg PUBLIC "-//W3C//DTD SVG 1.1//EN" "http://www.w3.org/Graphics/SVG/1.1/DTD/svg11.dtd"><svg t="1603174680280" class="icon" viewBox="0 0 1024 1024" version="1.1" xmlns="http://www.w3.org/2000/svg" p-id="11053" xmlns:xlink="http://www.w3.org/1999/xlink" width="200" height="200"><defs><style type="text/css"></style></defs><path d="M772.5056 473.3952l-0.4864 173.4784a51.9168 51.9168 0 0 1-25.8432 44.8l-149.9904 87.168c-34.6624 20.1472-78.08-4.9408-78.0032-45.0432l0.4864-173.4784a51.9168 51.9168 0 0 1 25.8304-44.8l149.9904-87.1552c34.6752-20.16 78.1312 4.928 78.016 45.0304z" fill="#DE50EB" p-id="11054"></path><path d="M518.6688 560.5504l-0.4864 174.08c-0.1152 39.9104-43.328 64.7808-77.888 44.8l-152-87.744A51.9296 51.9296 0 0 1 262.4 646.5792l0.4992-174.08c0.1152-39.9104 43.328-64.7808 77.8752-44.8l152 87.7568a51.9296 51.9296 0 0 1 25.8944 45.0944z" fill="#DE50EB" p-id="11055"></path><path d="M695.2576 427.904l-150.5024 87.4624a51.9424 51.9424 0 0 1-52.0448 0.0768l-152-87.7568c-34.56-19.9552-34.624-69.8112-0.1152-89.856l150.4896-87.4624a51.9296 51.9296 0 0 1 52.0576-0.0768l151.9872 87.7568c34.56 19.9424 34.6368 69.8112 0.128 89.856z" fill="#ED99F5" p-id="11056"></path><path d="M586.3552 888.7296A87.5008 87.5008 0 0 1 499.2 801.1904l0.64-226.9952a87.4624 87.4624 0 0 1 43.3536-75.0976l196.2624-114.048A87.1424 87.1424 0 0 1 870.4 460.6336l-0.64 226.9952a87.4624 87.4624 0 0 1-43.3536 75.0976L630.144 876.8a87.04 87.04 0 0 1-43.7888 11.9296z m196.9024-477.1584a48.7168 48.7168 0 0 0-24.4864 6.6688l-196.2624 114.0608a48.9216 48.9216 0 0 0-24.256 42.0096L537.6 801.28a48.7424 48.7424 0 0 0 73.2288 42.24l196.2752-113.92a48.9344 48.9344 0 0 0 24.32-42.0096l0.64-226.9952a48.9216 48.9216 0 0 0-48.7424-48.96z" p-id="11057"></path><path d="M450.4704 889.4976a86.9376 86.9376 0 0 1-43.52-11.8144L208.0128 762.88a87.3472 87.3472 0 0 1-43.52-75.712l0.6528-227.84a87.1424 87.1424 0 0 1 130.6624-75.1744l198.8736 114.8288a87.3216 87.3216 0 0 1 43.52 75.712L537.6 802.4576a87.4752 87.4752 0 0 1-87.1424 87.04z m-198.2336-478.72A48.896 48.896 0 0 0 203.52 459.52l-0.6528 227.776a48.8576 48.8576 0 0 0 24.32 42.3424l198.8864 114.8288a48.7552 48.7552 0 0 0 73.1264-42.112l0.64-227.84a48.8576 48.8576 0 0 0-24.32-42.3424L276.608 417.408a48.64 48.64 0 0 0-24.3712-6.6048z" p-id="11058"></path><path d="M519.0528 543.872a87.1808 87.1808 0 0 1-43.52-11.6352L276.608 417.408a87.1424 87.1424 0 0 1-0.2176-150.8096l196.928-114.4448a87.3728 87.3728 0 0 1 87.36-0.128l198.8736 114.8288a87.1424 87.1424 0 0 1 0.2176 150.8096l-196.928 114.4448a87.04 87.04 0 0 1-43.7888 11.7632zM517.12 178.7776a48.7296 48.7296 0 0 0-24.4992 6.5792L295.68 299.8016a48.7424 48.7424 0 0 0 0.128 84.352l198.8736 114.8288a48.8448 48.8448 0 0 0 48.8576-0.0768l196.9408-114.4448a48.7424 48.7424 0 0 0-0.128-84.352L541.44 185.28a48.768 48.768 0 0 0-24.32-6.5024z" p-id="11059"></path></svg>