<?xml version="1.0" standalone="no"?><!DOCTYPE svg PUBLIC "-//W3C//DTD SVG 1.1//EN" "http://www.w3.org/Graphics/SVG/1.1/DTD/svg11.dtd"><svg t="1603173760019" class="icon" viewBox="0 0 1024 1024" version="1.1" xmlns="http://www.w3.org/2000/svg" p-id="2161" xmlns:xlink="http://www.w3.org/1999/xlink" width="200" height="200"><defs><style type="text/css"></style></defs><path d="M523.6224 497.7408m-249.2544 0a249.2544 249.2544 0 1 0 498.5088 0 249.2544 249.2544 0 1 0-498.5088 0Z" fill="#EB5050" p-id="2162"></path><path d="M515.204317 556.412103m33.542883-33.542883l0.009051-0.009051q33.542883-33.542883 67.085766 0l237.904662 237.904663q33.542883 33.542883 0 67.085766l-0.009051 0.009051q-33.542883 33.542883-67.085766 0l-237.904662-237.904663q-33.542883-33.542883 0-67.085766Z" fill="#EB5050" p-id="2163"></path><path d="M498.8288 795.3664a322.4064 322.4064 0 1 1 227.9936-94.4384 320.2944 320.2944 0 0 1-227.9936 94.4384z m0-606.4384c-156.608 0-284.0064 127.4112-284.0064 284.0192s127.3984 284.0192 284.0064 284.0192S782.848 629.5552 782.848 472.9472 655.4368 188.928 498.8288 188.928z" p-id="2164"></path><path d="M820.0704 860.9024a66.2912 66.2912 0 0 1-47.2192-19.5072l-109.4784-109.4784 27.1616-27.1488L800 814.2464a28.3776 28.3776 0 0 0 40.128-40.128l-110.7712-110.7712L756.48 636.16l110.7712 110.7712a66.7264 66.7264 0 0 1-47.2064 113.92z" p-id="2165"></path><path d="M394.2912 375.04m-104.5504 0a104.5504 104.5504 0 1 0 209.1008 0 104.5504 104.5504 0 1 0-209.1008 0Z" fill="#F59999" p-id="2166"></path></svg>