<?xml version="1.0" standalone="no"?><!DOCTYPE svg PUBLIC "-//W3C//DTD SVG 1.1//EN" "http://www.w3.org/Graphics/SVG/1.1/DTD/svg11.dtd"><svg t="1603173746672" class="icon" viewBox="0 0 1024 1024" version="1.1" xmlns="http://www.w3.org/2000/svg" p-id="2008" xmlns:xlink="http://www.w3.org/1999/xlink" width="200" height="200"><defs><style type="text/css"></style></defs><path d="M512.5632 352.1024m-123.8016 0a123.8016 123.8016 0 1 0 247.6032 0 123.8016 123.8016 0 1 0-247.6032 0Z" fill="#507EEB" p-id="2009"></path><path d="M512.5632 795.0336a438.7584 438.7584 0 0 0 149.0304-25.9072c73.3312-26.4064 97.408-118.5152 46.08-177.1008a259.3408 259.3408 0 0 0-390.08 0c-51.456 58.5856-27.3792 150.6944 45.9264 177.1008a438.8096 438.8096 0 0 0 149.0432 25.9072z" fill="#507EEB" p-id="2010"></path><path d="M512.576 897.1136a545.28 545.28 0 0 1-280.5632-77.5296 141.9776 141.9776 0 0 1-59.52-71.1936 140.2368 140.2368 0 0 1-1.7152-94.4 359.552 359.552 0 0 1 152.32-191.36 219.3024 219.3024 0 0 1-32.1152-114.8288c0-122.1888 99.4176-221.5936 221.5936-221.5936s221.5808 99.4048 221.5808 221.5936a219.2256 219.2256 0 0 1-32.1408 114.8672A359.68 359.68 0 0 1 853.9648 652.8a141.056 141.056 0 0 1-60.8512 166.784 545.1648 545.1648 0 0 1-280.5376 77.5296z m0-732.5056c-101.0176 0-183.1936 82.1888-183.1936 183.1936a181.4784 181.4784 0 0 0 36.5312 109.6448 19.2 19.2 0 0 1-6.2592 28.416 321.3696 321.3696 0 0 0-152.4992 180.48 101.76 101.76 0 0 0 1.28 68.4928 103.4368 103.4368 0 0 0 43.3664 51.8656 508.0064 508.0064 0 0 0 521.5872 0 102.6688 102.6688 0 0 0 44.2752-121.3824 321.536 321.536 0 0 0-152.2048-179.4176A19.2 19.2 0 0 1 659.2 457.472a181.376 181.376 0 0 0 36.5568-109.6704c0-101.0048-82.176-183.1936-183.1808-183.1936z" p-id="2011"></path><path d="M452.352 300.1728m19.1744 0l-0.0128 0q19.1744 0 19.1744 19.1744l0 29.12q0 19.1744-19.1744 19.1744l0.0128 0q-19.1744 0-19.1744-19.1744l0-29.12q0-19.1744 19.1744-19.1744Z" fill="#A8BFF7" p-id="2012"></path><path d="M534.3104 300.1728m19.1744 0l-0.0128 0q19.1744 0 19.1744 19.1744l0 29.12q0 19.1744-19.1744 19.1744l0.0128 0q-19.1744 0-19.1744-19.1744l0-29.12q0-19.1744 19.1744-19.1744Z" fill="#A8BFF7" p-id="2013"></path></svg>