<?xml version="1.0" standalone="no"?><!DOCTYPE svg PUBLIC "-//W3C//DTD SVG 1.1//EN" "http://www.w3.org/Graphics/SVG/1.1/DTD/svg11.dtd"><svg t="1603175749841" class="icon" viewBox="0 0 1024 1024" version="1.1" xmlns="http://www.w3.org/2000/svg" p-id="32985" xmlns:xlink="http://www.w3.org/1999/xlink" width="200" height="200"><defs><style type="text/css"></style></defs><path d="M706.133333 748.8h-490.666666c-36.266667 0-66.133333-29.866667-66.133334-68.266667V270.933333c0-46.933333 36.266667-83.2 81.066667-83.2h362.666667c29.866667 0 55.466667 19.2 64 46.933334 6.4 19.2 12.8 38.4 21.333333 57.6l96 386.133333c-2.133333 40.533333-32 70.4-68.266667 70.4z" fill="#93A8FF" p-id="32986"></path><path d="M704 836.266667H234.666667c-46.933333 0-85.333333-38.4-85.333334-85.333334v-469.333333h554.666667c46.933333 0 85.333333 38.4 85.333333 85.333333v384c0 46.933333-38.4 85.333333-85.333333 85.333334z" fill="#1296db" p-id="32987" data-spm-anchor-id="a313x.7781069.0.i15" class="selected"></path><path d="M770.133333 661.333333h-110.933333c-57.6 0-104.533333-46.933333-104.533333-104.533333v-4.266667c0-57.6 46.933333-104.533333 104.533333-104.533333h110.933333c57.6 0 104.533333 46.933333 104.533334 104.533333v4.266667c0 57.6-46.933333 104.533333-104.533334 104.533333z" fill="#FCCA1E" p-id="32988"></path><path d="M768 554.666667m-64 0a64 64 0 1 0 128 0 64 64 0 1 0-128 0Z" fill="#FF354A" p-id="32989"></path></svg>